<svg xmlns="http://www.w3.org/2000/svg" width="900" height="356" viewBox="0 0 900 356">
<rect width="100%" height="100%" fill="#ffffff"/>
<text x="24" y="32" font-family="Arial" font-size="20" font-weight="700" fill="#111827">Persentase Respons per Aspek Tahap 2</text>
<text x="24" y="82" font-family="Arial" font-size="13" fill="#374151">tampilan</text>
<rect x="220" y="62" width="600.0" height="28" rx="3" fill="#2563eb"/>
<text x="828.0" y="81" font-family="Arial" font-size="13" fill="#111827">100.00</text>
<text x="24" y="128" font-family="Arial" font-size="13" fill="#374151">navigasi</text>
<rect x="220" y="108" width="555.0" height="28" rx="3" fill="#2563eb"/>
<text x="783.0" y="127" font-family="Arial" font-size="13" fill="#111827">92.50</text>
<text x="24" y="174" font-family="Arial" font-size="13" fill="#374151">multimedia</text>
<rect x="220" y="154" width="570.0" height="28" rx="3" fill="#2563eb"/>
<text x="798.0" y="173" font-family="Arial" font-size="13" fill="#111827">95.00</text>
<text x="24" y="220" font-family="Arial" font-size="13" fill="#374151">interaktivitas</text>
<rect x="220" y="200" width="600.0" height="28" rx="3" fill="#2563eb"/>
<text x="828.0" y="219" font-family="Arial" font-size="13" fill="#111827">100.00</text>
<text x="24" y="266" font-family="Arial" font-size="13" fill="#374151">materi</text>
<rect x="220" y="246" width="600.0" height="28" rx="3" fill="#2563eb"/>
<text x="828.0" y="265" font-family="Arial" font-size="13" fill="#111827">100.00</text>
<text x="24" y="312" font-family="Arial" font-size="13" fill="#374151">teknik_feynman</text>
<rect x="220" y="292" width="540.0" height="28" rx="3" fill="#2563eb"/>
<text x="768.0" y="311" font-family="Arial" font-size="13" fill="#111827">90.00</text>
</svg>